<svg width="307" height="87" viewBox="0 0 307 87" fill="none" xmlns="http://www.w3.org/2000/svg">
<path d="M220.806 29V14.823H223.816L224.125 17.4671C224.463 16.8483 224.885 16.3232 225.391 15.8919C225.897 15.4418 226.488 15.0949 227.163 14.8511C227.857 14.6073 228.617 14.4854 229.442 14.4854V18.0578H228.26C227.698 18.0578 227.163 18.1328 226.657 18.2828C226.151 18.4141 225.71 18.6391 225.335 18.9579C224.979 19.258 224.697 19.6799 224.491 20.2237C224.285 20.7488 224.182 21.4145 224.182 22.2209V29H220.806ZM237.556 29.3375C236.393 29.3375 235.427 29.1406 234.658 28.7468C233.89 28.353 233.318 27.828 232.943 27.1716C232.568 26.5153 232.38 25.8027 232.38 25.0338C232.38 24.1337 232.605 23.3554 233.055 22.6991C233.524 22.0428 234.208 21.5364 235.109 21.1801C236.009 20.8051 237.115 20.6175 238.428 20.6175H242C242 19.8674 241.897 19.2486 241.691 18.761C241.484 18.2547 241.166 17.8797 240.734 17.6359C240.303 17.3921 239.75 17.2702 239.075 17.2702C238.306 17.2702 237.65 17.4483 237.106 17.8046C236.562 18.1422 236.224 18.6673 236.093 19.3799H232.774C232.886 18.3672 233.224 17.5046 233.786 16.792C234.349 16.0606 235.09 15.4981 236.009 15.1043C236.946 14.6917 237.968 14.4854 239.075 14.4854C240.406 14.4854 241.541 14.7198 242.478 15.1886C243.416 15.6387 244.129 16.2951 244.616 17.1577C245.122 18.0015 245.376 19.0236 245.376 20.2237V29H242.506L242.169 26.7215C241.981 27.0966 241.738 27.4435 241.438 27.7623C241.156 28.0811 240.828 28.3624 240.453 28.6062C240.078 28.8312 239.647 29.0094 239.159 29.1406C238.69 29.2719 238.156 29.3375 237.556 29.3375ZM238.315 26.6653C238.859 26.6653 239.337 26.5715 239.75 26.384C240.181 26.1777 240.547 25.8964 240.847 25.5401C241.166 25.1651 241.409 24.7525 241.578 24.3025C241.747 23.8524 241.86 23.3742 241.916 22.8679V22.8116H238.793C238.137 22.8116 237.593 22.896 237.162 23.0648C236.731 23.2148 236.421 23.4398 236.234 23.7399C236.046 24.0399 235.952 24.3868 235.952 24.7806C235.952 25.1745 236.046 25.512 236.234 25.7933C236.421 26.0746 236.693 26.2902 237.049 26.4403C237.406 26.5903 237.828 26.6653 238.315 26.6653ZM255.79 35.5259C254.458 35.5259 253.286 35.3572 252.273 35.0196C251.28 34.7008 250.501 34.2039 249.939 33.5288C249.395 32.8724 249.123 32.0473 249.123 31.0534C249.123 30.4721 249.264 29.9001 249.545 29.3375C249.845 28.7937 250.286 28.2874 250.867 27.8186C251.467 27.331 252.227 26.9091 253.145 26.5528L254.636 28.1843C253.736 28.5031 253.108 28.8875 252.752 29.3375C252.395 29.7876 252.217 30.2471 252.217 30.7159C252.217 31.2034 252.367 31.6066 252.667 31.9254C252.986 32.263 253.408 32.5161 253.933 32.6849C254.477 32.8537 255.086 32.9381 255.761 32.9381C256.418 32.9381 256.99 32.8443 257.477 32.6568C257.965 32.488 258.34 32.2442 258.602 31.9254C258.884 31.6066 259.024 31.2222 259.024 30.7721C259.024 30.2095 258.827 29.7501 258.434 29.3938C258.04 29.0563 257.262 28.85 256.099 28.775C255.105 28.7 254.233 28.5968 253.483 28.4655C252.733 28.3155 252.086 28.1468 251.542 27.9592C251.017 27.7717 250.567 27.5654 250.192 27.3404C249.817 27.0966 249.507 26.8528 249.264 26.609V25.9621L252.217 22.8679L254.721 23.6836L251.401 26.9185L252.273 25.287C252.461 25.4182 252.648 25.5401 252.836 25.6526C253.042 25.7652 253.295 25.8683 253.595 25.9621C253.914 26.0371 254.327 26.1121 254.833 26.1871C255.339 26.2621 255.996 26.3371 256.802 26.4121C258.059 26.5059 259.081 26.7309 259.868 27.0872C260.656 27.4435 261.237 27.9217 261.612 28.5218C261.987 29.1219 262.175 29.8439 262.175 30.6877C262.175 31.5129 261.94 32.2911 261.472 33.0225C261.022 33.7538 260.328 34.3539 259.39 34.8227C258.452 35.2915 257.252 35.5259 255.79 35.5259ZM255.79 24.7525C254.608 24.7525 253.586 24.5275 252.723 24.0774C251.88 23.6086 251.233 22.9898 250.783 22.2209C250.333 21.4333 250.107 20.5707 250.107 19.633C250.107 18.6766 250.333 17.814 250.783 17.0452C251.233 16.2763 251.88 15.6575 252.723 15.1886C253.586 14.7198 254.608 14.4854 255.79 14.4854C256.971 14.4854 257.984 14.7198 258.827 15.1886C259.671 15.6575 260.318 16.2763 260.768 17.0452C261.218 17.814 261.443 18.6766 261.443 19.633C261.443 20.5707 261.218 21.4333 260.768 22.2209C260.318 22.9898 259.671 23.6086 258.827 24.0774C257.984 24.5275 256.971 24.7525 255.79 24.7525ZM255.79 22.1365C256.596 22.1365 257.243 21.9209 257.73 21.4895C258.218 21.0582 258.462 20.4394 258.462 19.633C258.462 18.8267 258.218 18.2172 257.73 17.8046C257.243 17.3733 256.596 17.1577 255.79 17.1577C254.983 17.1577 254.327 17.3733 253.821 17.8046C253.314 18.2172 253.061 18.8267 253.061 19.633C253.061 20.4394 253.314 21.0582 253.821 21.4895C254.327 21.9209 254.983 22.1365 255.79 22.1365ZM258.124 17.2983L257.477 14.823H263.3V16.9326L258.124 17.2983ZM267.124 29V14.823H270.106L270.387 16.7639C270.837 16.0513 271.428 15.4981 272.16 15.1043C272.91 14.6917 273.763 14.4854 274.719 14.4854C275.432 14.4854 276.069 14.5792 276.632 14.7667C277.213 14.9542 277.72 15.2355 278.151 15.6106C278.601 15.9856 278.967 16.4545 279.248 17.017C279.773 16.2294 280.458 15.6106 281.301 15.1605C282.145 14.7105 283.064 14.4854 284.058 14.4854C285.24 14.4854 286.243 14.7292 287.068 15.2168C287.893 15.6856 288.521 16.3888 288.953 17.3265C289.384 18.2453 289.6 19.3799 289.6 20.7301V29H286.252V21.0676C286.252 19.8674 286.008 18.9486 285.521 18.311C285.033 17.6734 284.311 17.3546 283.355 17.3546C282.699 17.3546 282.117 17.514 281.611 17.8328C281.123 18.1516 280.739 18.6204 280.458 19.2392C280.176 19.8393 280.036 20.58 280.036 21.4614V29H276.688V21.0676C276.688 19.8674 276.445 18.9486 275.957 18.311C275.469 17.6734 274.738 17.3546 273.763 17.3546C273.144 17.3546 272.581 17.514 272.075 17.8328C271.588 18.1516 271.203 18.6204 270.922 19.2392C270.641 19.8393 270.5 20.58 270.5 21.4614V29H267.124ZM294.01 29V14.823H297.019L297.329 17.4671C297.666 16.8483 298.088 16.3232 298.595 15.8919C299.101 15.4418 299.692 15.0949 300.367 14.8511C301.061 14.6073 301.82 14.4854 302.645 14.4854V18.0578H301.464C300.901 18.0578 300.367 18.1328 299.86 18.2828C299.354 18.4141 298.913 18.6391 298.538 18.9579C298.182 19.258 297.901 19.6799 297.695 20.2237C297.488 20.7488 297.385 21.4145 297.385 22.2209V29H294.01Z" fill="white"/>
<path d="M202.42 8.30068C201.648 8.30068 201.021 8.92602 201.02 9.6985L201 18.8213C201 18.8213 201.878 17.4802 204.722 16.6709L204.699 11.8846H210.63C212.82 11.8846 214.595 13.66 214.595 15.85C214.595 18.0401 212.82 19.8155 210.63 19.8155H207.976C206.971 19.8155 206.156 20.6304 206.156 21.6357C206.156 22.6369 206.964 23.4503 207.966 23.4559L211.057 23.4735C215.097 23.4964 218.382 20.2245 218.376 16.1846L218.375 15.5676C218.369 11.5525 215.113 8.30068 211.097 8.30068H202.42Z" fill="white"/>
<path d="M201.657 23.8728C201.025 25.0927 201.01 26.2609 200.98 27.2371C200.945 28.4047 201.689 29.3945 202.857 29.3945C203.885 29.3945 204.718 28.5615 204.718 27.5337V20.6688C204.067 21.0487 202.618 22.0147 201.657 23.8728Z" fill="white"/>
<path d="M208.98 14.9243C208.882 15.2241 209.049 15.5457 209.351 15.6375L210.247 15.9097C204.397 17.482 202.418 18.9503 202.418 18.9503C198.881 21.4937 200.268 26.1182 200.268 26.1182C200.267 22.3898 203.391 20.4591 203.391 20.4591C206.212 18.7017 210.779 17.1814 210.779 17.1814L210.25 18.1613C210.104 18.4332 210.215 18.7724 210.494 18.9049C210.732 19.0179 211.016 18.9428 211.167 18.7272L213.093 15.9797C213.217 15.8037 213.13 15.5586 212.924 15.4988L209.671 14.558C209.619 14.543 209.566 14.5358 209.515 14.5358C209.277 14.5358 209.057 14.6874 208.98 14.9243Z" fill="white"/>
<path d="M292.509 3.80771V3.14344H296.467V3.80771H294.872V8.25781H294.103V3.80771H292.509ZM297.342 3.14344H298.279L299.907 7.11907H299.967L301.595 3.14344H302.531V8.25781H301.797V4.55689H301.75L300.241 8.25032H299.632L298.124 4.55439H298.076V8.25781H297.342V3.14344Z" fill="white"/>
<path d="M31.1641 86.0126C25.3695 86.0126 20.2782 84.7187 15.8901 82.1308C11.5019 79.543 8.04206 75.9706 5.51045 71.4137C3.0351 66.8005 1.79742 61.4841 1.79742 55.4645C1.79742 49.4449 3.0351 44.1566 5.51045 39.5997C8.04206 34.9866 11.5019 31.3861 15.8901 28.7982C20.2782 26.2103 25.3695 24.9164 31.1641 24.9164C36.9587 24.9164 42.0782 26.2103 46.5226 28.7982C50.967 31.3861 54.3987 34.9866 56.8178 39.5997C59.2932 44.1566 60.5308 49.4449 60.5308 55.4645C60.5308 61.4841 59.2932 66.8005 56.8178 71.4137C54.3987 75.9706 50.967 79.543 46.5226 82.1308C42.0782 84.7187 36.9587 86.0126 31.1641 86.0126ZM31.1641 74.6204C34.5959 74.6204 37.5213 73.8328 39.9404 72.2575C42.4157 70.6823 44.3285 68.4883 45.6787 65.6754C47.0289 62.8062 47.704 59.4026 47.704 55.4645C47.704 51.5265 47.0289 48.151 45.6787 45.3381C44.3285 42.4689 42.4157 40.2748 39.9404 38.7559C37.5213 37.1806 34.5959 36.393 31.1641 36.393C27.8449 36.393 24.9476 37.1806 22.4723 38.7559C19.9969 40.2748 18.0841 42.4689 16.7339 45.3381C15.3837 48.151 14.7086 51.5265 14.7086 55.4645C14.7086 59.4026 15.3837 62.8062 16.7339 65.6754C18.0841 68.4883 19.9969 70.6823 22.4723 72.2575C24.9476 73.8328 27.8449 74.6204 31.1641 74.6204ZM65.6053 85V42.4689H76.66L77.6726 49.3043C78.9666 46.9414 80.7949 45.0568 83.1578 43.6503C85.5206 42.1876 88.3898 41.4563 91.7653 41.4563C95.3095 41.4563 98.2912 42.2157 100.71 43.7347C103.129 45.2537 104.958 47.4477 106.195 50.3169C107.489 53.1298 108.136 56.5897 108.136 60.6965V85H95.5627V61.8779C95.5627 58.7837 94.8876 56.3928 93.5374 54.705C92.2435 52.961 90.1619 52.089 87.2928 52.089C85.605 52.089 84.0579 52.511 82.6515 53.3548C81.3013 54.1425 80.2324 55.2957 79.4448 56.8147C78.6571 58.3337 78.2633 60.1621 78.2633 62.2999V85H65.6053Z" fill="white"/>
<path d="M166.105 85V42.4689H178.764V85H166.105ZM172.435 37.5745C170.184 37.5745 168.356 36.9275 166.949 35.6335C165.543 34.3396 164.84 32.7081 164.84 30.7391C164.84 28.7138 165.543 27.0542 166.949 25.7603C168.356 24.4663 170.184 23.8194 172.435 23.8194C174.741 23.8194 176.598 24.4663 178.004 25.7603C179.467 27.0542 180.198 28.7138 180.198 30.7391C180.198 32.7081 179.467 34.3396 178.004 35.6335C176.598 36.9275 174.741 37.5745 172.435 37.5745ZM185.698 85V42.4689H196.753L197.85 47.9541C199.2 45.985 200.973 44.4098 203.167 43.2284C205.417 42.047 208.005 41.4563 210.93 41.4563C213.012 41.4563 214.896 41.7375 216.584 42.3001C218.272 42.8065 219.763 43.5941 221.057 44.663C222.351 45.6756 223.419 46.9695 224.263 48.5448C225.895 46.3507 227.976 44.6348 230.508 43.3972C233.04 42.1032 235.796 41.4563 238.778 41.4563C242.603 41.4563 245.754 42.2157 248.229 43.7347C250.761 45.2537 252.646 47.4477 253.883 50.3169C255.121 53.1861 255.74 56.6741 255.74 60.7809V85H243.166V61.8779C243.166 58.7837 242.547 56.3928 241.31 54.705C240.128 52.961 238.215 52.089 235.571 52.089C233.883 52.089 232.393 52.511 231.099 53.3548C229.805 54.1987 228.792 55.3801 228.061 56.8991C227.386 58.4181 227.048 60.2465 227.048 62.3843V85H214.474V61.8779C214.474 58.7837 213.856 56.3928 212.618 54.705C211.38 52.961 209.383 52.089 206.626 52.089C205.051 52.089 203.617 52.511 202.323 53.3548C201.085 54.1987 200.101 55.3801 199.369 56.8991C198.694 58.4181 198.357 60.2465 198.357 62.3843V85H185.698ZM283.003 86.0126C278.615 86.0126 274.762 85.1125 271.442 83.3123C268.123 81.4557 265.507 78.896 263.594 75.633C261.738 72.3138 260.81 68.5164 260.81 64.2408C260.81 59.8526 261.738 55.9427 263.594 52.511C265.451 49.0792 268.039 46.3788 271.358 44.4098C274.677 42.4408 278.531 41.4563 282.919 41.4563C287.195 41.4563 290.936 42.3845 294.142 44.241C297.349 46.0975 299.853 48.6292 301.653 51.8359C303.509 54.9863 304.438 58.6431 304.438 62.8062C304.438 63.3688 304.41 64.0157 304.353 64.7471C304.353 65.4222 304.297 66.1254 304.185 66.8568H269.839V59.5151H291.526C291.414 57.1523 290.542 55.2676 288.91 53.8612C287.335 52.3985 285.366 51.6671 283.003 51.6671C281.203 51.6671 279.572 52.089 278.109 52.9329C276.646 53.7768 275.465 55.0426 274.565 56.7303C273.721 58.4181 273.299 60.5559 273.299 63.1437V65.6754C273.299 67.6444 273.665 69.3884 274.396 70.9074C275.184 72.4263 276.281 73.6077 277.687 74.4516C279.15 75.2955 280.866 75.7174 282.835 75.7174C284.691 75.7174 286.21 75.3517 287.391 74.6204C288.629 73.8328 289.586 72.8483 290.261 71.6668H303.172C302.384 74.3672 301.034 76.8145 299.121 79.0085C297.209 81.1463 294.874 82.8622 292.117 84.1561C289.361 85.3938 286.323 86.0126 283.003 86.0126Z" fill="white"/>
<path d="M143.035 47.5107C145.535 56.5107 137.035 64.5107 128.535 60.0107C125.036 64.0107 124.007 68.5647 124.035 75.5107C123.847 82.61 124.993 84.7455 131.035 85.0107C138.535 84.0107 138.036 82.0107 138.035 63.5107C145.032 58.5786 146.992 54.8005 145.035 46.5107L143.035 47.5107Z" fill="white"/>
<path d="M151.535 41.0109C134.182 47.7314 116.535 62.0109 120.035 76.0109C112.036 64.0109 111.595 53.3873 148.535 36.0109C148.535 36.0109 144.036 34.5107 143.036 33.5107C142.036 32.5107 142.711 31.2374 145.036 31.0107L145.096 31.015C152.051 31.5118 154.742 31.704 161.035 33.5109C157.907 39.239 155.535 44.5109 152.535 47.5109C152.035 48.0109 151.305 47.8981 151.035 47.5109C150.637 46.8403 150.542 46.4574 150.535 45.5109C150.689 43.7052 150.934 42.7246 151.535 41.0109Z" fill="white"/>
<path d="M135.952 53.462C136.417 52.9788 137.212 53.0615 137.568 53.63L139.757 57.1256L136.181 55.0712C135.599 54.737 135.487 53.9452 135.952 53.462Z" fill="white"/>
<path d="M138.036 37.0147L124.037 44.0147L124.035 28.5107C124.194 25.6193 122.756 24.9053 118.035 25.0107H103.535C99.831 25.077 98.1374 24.6611 98.0355 20.5107V13.5107C97.7735 9.23766 98.8987 7.90927 103.536 8.01089H156.536C161.882 7.90201 163.957 8.55359 164.036 12.5109V16.5109C164.391 23.5095 162.995 24.8906 159.036 25.0147H142.536C136.689 24.8433 138.186 30.4156 138.036 37.0147Z" fill="white"/>
<rect x="124.036" y="74.5107" width="14" height="11" fill="white"/>
</svg>
